solid OpenSCAD_Model
  facet normal 0.999507 0.0314114 0
    outer loop
      vertex 47.625 0 9.525
      vertex 47.531 2.9904 0
      vertex 47.531 2.9904 9.525
    endloop
  endfacet
  facet normal 0.999507 0.0314114 0
    outer loop
      vertex 47.531 2.9904 0
      vertex 47.625 0 9.525
      vertex 47.625 0 0
    endloop
  endfacet
  facet normal -0.999507 0.0314114 0
    outer loop
      vertex -47.625 0 0
      vertex -47.531 2.9904 9.525
      vertex -47.531 2.9904 0
    endloop
  endfacet
  facet normal -0.999507 0.0314114 0
    outer loop
      vertex -47.531 2.9904 9.525
      vertex -47.625 0 0
      vertex -47.625 0 9.525
    endloop
  endfacet
  facet normal -0.0314114 0.999507 0
    outer loop
      vertex 0 47.625 0
      vertex -2.9904 47.531 9.525
      vertex 0 47.625 9.525
    endloop
  endfacet
  facet normal -0.0314114 0.999507 0
    outer loop
      vertex -2.9904 47.531 9.525
      vertex 0 47.625 0
      vertex -2.9904 47.531 0
    endloop
  endfacet
  facet normal 0.707107 0.707107 0
    outer loop
      vertex 34.7171 32.6016 9.525
      vertex 32.6016 34.7171 0
      vertex 32.6016 34.7171 9.525
    endloop
  endfacet
  facet normal 0.707107 0.707107 0
    outer loop
      vertex 32.6016 34.7171 0
      vertex 34.7171 32.6016 9.525
      vertex 34.7171 32.6016 0
    endloop
  endfacet
  facet normal -0.707107 0.707107 0
    outer loop
      vertex -34.7171 32.6016 0
      vertex -32.6016 34.7171 9.525
      vertex -32.6016 34.7171 0
    endloop
  endfacet
  facet normal -0.707107 0.707107 0
    outer loop
      vertex -32.6016 34.7171 9.525
      vertex -34.7171 32.6016 0
      vertex -34.7171 32.6016 9.525
    endloop
  endfacet
  facet normal 0.917755 0.397148 0
    outer loop
      vertex 44.2806 17.5319 9.525
      vertex 43.0924 20.2777 0
      vertex 43.0924 20.2777 9.525
    endloop
  endfacet
  facet normal 0.917755 0.397148 0
    outer loop
      vertex 43.0924 20.2777 0
      vertex 44.2806 17.5319 9.525
      vertex 44.2806 17.5319 0
    endloop
  endfacet
  facet normal 0.562083 0.827081 -0
    outer loop
      vertex 27.9933 38.5294 0
      vertex 25.5187 40.2111 9.525
      vertex 27.9933 38.5294 9.525
    endloop
  endfacet
  facet normal 0.562083 0.827081 0
    outer loop
      vertex 25.5187 40.2111 9.525
      vertex 27.9933 38.5294 0
      vertex 25.5187 40.2111 0
    endloop
  endfacet
  facet normal -0.860742 0.509042 0
    outer loop
      vertex -41.7341 22.9435 0
      vertex -40.2111 25.5187 9.525
      vertex -40.2111 25.5187 0
    endloop
  endfacet
  facet normal -0.860742 0.509042 0
    outer loop
      vertex -40.2111 25.5187 9.525
      vertex -41.7341 22.9435 0
      vertex -41.7341 22.9435 9.525
    endloop
  endfacet
  facet normal -0.827081 0.562083 0
    outer loop
      vertex -40.2111 25.5187 0
      vertex -38.5294 27.9933 9.525
      vertex -38.5294 27.9933 0
    endloop
  endfacet
  facet normal -0.827081 0.562083 0
    outer loop
      vertex -38.5294 27.9933 9.525
      vertex -40.2111 25.5187 0
      vertex -40.2111 25.5187 9.525
    endloop
  endfacet
  facet normal -0.218143 0.975917 0
    outer loop
      vertex -8.92404 46.7814 0
      vertex -11.8439 46.1288 9.525
      vertex -8.92404 46.7814 9.525
    endloop
  endfacet
  facet normal -0.218143 0.975917 0
    outer loop
      vertex -11.8439 46.1288 9.525
      vertex -8.92404 46.7814 0
      vertex -11.8439 46.1288 0
    endloop
  endfacet
  facet normal 0.975917 0.218143 0
    outer loop
      vertex 46.7814 8.92404 9.525
      vertex 46.1288 11.8439 0
      vertex 46.1288 11.8439 9.525
    endloop
  endfacet
  facet normal 0.975917 0.218143 0
    outer loop
      vertex 46.1288 11.8439 0
      vertex 46.7814 8.92404 9.525
      vertex 46.7814 8.92404 0
    endloop
  endfacet
  facet normal 0.960294 0.278991 0
    outer loop
      vertex 46.1288 11.8439 9.525
      vertex 45.2941 14.7169 0
      vertex 45.2941 14.7169 9.525
    endloop
  endfacet
  facet normal 0.960294 0.278991 0
    outer loop
      vertex 45.2941 14.7169 0
      vertex 46.1288 11.8439 9.525
      vertex 46.1288 11.8439 0
    endloop
  endfacet
  facet normal 0.891006 0.453991 0
    outer loop
      vertex 43.0924 20.2777 9.525
      vertex 41.7341 22.9435 0
      vertex 41.7341 22.9435 9.525
    endloop
  endfacet
  facet normal 0.891006 0.453991 0
    outer loop
      vertex 41.7341 22.9435 0
      vertex 43.0924 20.2777 9.525
      vertex 43.0924 20.2777 0
    endloop
  endfacet
  facet normal 0.156435 0.987688 -0
    outer loop
      vertex 8.92404 46.7814 0
      vertex 5.969 47.2495 9.525
      vertex 8.92404 46.7814 9.525
    endloop
  endfacet
  facet normal 0.156435 0.987688 0
    outer loop
      vertex 5.969 47.2495 9.525
      vertex 8.92404 46.7814 0
      vertex 5.969 47.2495 0
    endloop
  endfacet
  facet normal 0.612907 0.790155 -0
    outer loop
      vertex 30.3573 36.6957 0
      vertex 27.9933 38.5294 9.525
      vertex 30.3573 36.6957 9.525
    endloop
  endfacet
  facet normal 0.612907 0.790155 0
    outer loop
      vertex 27.9933 38.5294 9.525
      vertex 30.3573 36.6957 0
      vertex 27.9933 38.5294 0
    endloop
  endfacet
  facet normal -0.917755 0.397148 0
    outer loop
      vertex -44.2806 17.5319 0
      vertex -43.0924 20.2777 9.525
      vertex -43.0924 20.2777 0
    endloop
  endfacet
  facet normal -0.917755 0.397148 0
    outer loop
      vertex -43.0924 20.2777 9.525
      vertex -44.2806 17.5319 0
      vertex -44.2806 17.5319 9.525
    endloop
  endfacet
  facet normal -0.975917 0.218143 0
    outer loop
      vertex -46.7814 8.92404 0
      vertex -46.1288 11.8439 9.525
      vertex -46.1288 11.8439 0
    endloop
  endfacet
  facet normal -0.975917 0.218143 0
    outer loop
      vertex -46.1288 11.8439 9.525
      vertex -46.7814 8.92404 0
      vertex -46.7814 8.92404 9.525
    endloop
  endfacet
  facet normal -0.940881 0.338738 0
    outer loop
      vertex -45.2941 14.7169 0
      vertex -44.2806 17.5319 9.525
      vertex -44.2806 17.5319 0
    endloop
  endfacet
  facet normal -0.940881 0.338738 0
    outer loop
      vertex -44.2806 17.5319 9.525
      vertex -45.2941 14.7169 0
      vertex -45.2941 14.7169 9.525
    endloop
  endfacet
  facet normal -0.987688 0.156435 0
    outer loop
      vertex -47.2495 5.969 0
      vertex -46.7814 8.92404 9.525
      vertex -46.7814 8.92404 0
    endloop
  endfacet
  facet normal -0.987688 0.156435 0
    outer loop
      vertex -46.7814 8.92404 9.525
      vertex -47.2495 5.969 0
      vertex -47.2495 5.969 9.525
    endloop
  endfacet
  facet normal -0.562083 0.827081 0
    outer loop
      vertex -25.5187 40.2111 0
      vertex -27.9933 38.5294 9.525
      vertex -25.5187 40.2111 9.525
    endloop
  endfacet
  facet normal -0.562083 0.827081 0
    outer loop
      vertex -27.9933 38.5294 9.525
      vertex -25.5187 40.2111 0
      vertex -27.9933 38.5294 0
    endloop
  endfacet
  facet normal -0.453991 0.891006 0
    outer loop
      vertex -20.2777 43.0924 0
      vertex -22.9435 41.7341 9.525
      vertex -20.2777 43.0924 9.525
    endloop
  endfacet
  facet normal -0.453991 0.891006 0
    outer loop
      vertex -22.9435 41.7341 9.525
      vertex -20.2777 43.0924 0
      vertex -22.9435 41.7341 0
    endloop
  endfacet
  facet normal -0.661312 0.750111 0
    outer loop
      vertex -30.3573 36.6957 0
      vertex -32.6016 34.7171 9.525
      vertex -30.3573 36.6957 9.525
    endloop
  endfacet
  facet normal -0.661312 0.750111 0
    outer loop
      vertex -32.6016 34.7171 9.525
      vertex -30.3573 36.6957 0
      vertex -32.6016 34.7171 0
    endloop
  endfacet
  facet normal -0.338738 0.940881 0
    outer loop
      vertex -14.7169 45.2941 0
      vertex -17.5319 44.2806 9.525
      vertex -14.7169 45.2941 9.525
    endloop
  endfacet
  facet normal -0.338738 0.940881 0
    outer loop
      vertex -17.5319 44.2806 9.525
      vertex -14.7169 45.2941 0
      vertex -17.5319 44.2806 0
    endloop
  endfacet
  facet normal -0.156435 0.987688 0
    outer loop
      vertex -5.969 47.2495 0
      vertex -8.92404 46.7814 9.525
      vertex -5.969 47.2495 9.525
    endloop
  endfacet
  facet normal -0.156435 0.987688 0
    outer loop
      vertex -8.92404 46.7814 9.525
      vertex -5.969 47.2495 0
      vertex -8.92404 46.7814 0
    endloop
  endfacet
  facet normal 0.987688 0.156435 0
    outer loop
      vertex 47.2495 5.969 9.525
      vertex 46.7814 8.92404 0
      vertex 46.7814 8.92404 9.525
    endloop
  endfacet
  facet normal 0.987688 0.156435 0
    outer loop
      vertex 46.7814 8.92404 0
      vertex 47.2495 5.969 9.525
      vertex 47.2495 5.969 0
    endloop
  endfacet
  facet normal 0.995562 0.0941079 0
    outer loop
      vertex 47.531 2.9904 9.525
      vertex 47.2495 5.969 0
      vertex 47.2495 5.969 9.525
    endloop
  endfacet
  facet normal 0.995562 0.0941079 0
    outer loop
      vertex 47.2495 5.969 0
      vertex 47.531 2.9904 9.525
      vertex 47.531 2.9904 0
    endloop
  endfacet
  facet normal 0.790155 0.612907 0
    outer loop
      vertex 38.5294 27.9933 9.525
      vertex 36.6957 30.3573 0
      vertex 36.6957 30.3573 9.525
    endloop
  endfacet
  facet normal 0.790155 0.612907 0
    outer loop
      vertex 36.6957 30.3573 0
      vertex 38.5294 27.9933 9.525
      vertex 38.5294 27.9933 0
    endloop
  endfacet
  facet normal 0.750111 0.661312 0
    outer loop
      vertex 36.6957 30.3573 9.525
      vertex 34.7171 32.6016 0
      vertex 34.7171 32.6016 9.525
    endloop
  endfacet
  facet normal 0.750111 0.661312 0
    outer loop
      vertex 34.7171 32.6016 0
      vertex 36.6957 30.3573 9.525
      vertex 36.6957 30.3573 0
    endloop
  endfacet
  facet normal 0.827081 0.562083 0
    outer loop
      vertex 40.2111 25.5187 9.525
      vertex 38.5294 27.9933 0
      vertex 38.5294 27.9933 9.525
    endloop
  endfacet
  facet normal 0.827081 0.562083 0
    outer loop
      vertex 38.5294 27.9933 0
      vertex 40.2111 25.5187 9.525
      vertex 40.2111 25.5187 0
    endloop
  endfacet
  facet normal 0.278991 0.960294 -0
    outer loop
      vertex 14.7169 45.2941 0
      vertex 11.8439 46.1288 9.525
      vertex 14.7169 45.2941 9.525
    endloop
  endfacet
  facet normal 0.278991 0.960294 0
    outer loop
      vertex 11.8439 46.1288 9.525
      vertex 14.7169 45.2941 0
      vertex 11.8439 46.1288 0
    endloop
  endfacet
  facet normal 0.218143 0.975917 -0
    outer loop
      vertex 11.8439 46.1288 0
      vertex 8.92404 46.7814 9.525
      vertex 11.8439 46.1288 9.525
    endloop
  endfacet
  facet normal 0.218143 0.975917 0
    outer loop
      vertex 8.92404 46.7814 9.525
      vertex 11.8439 46.1288 0
      vertex 8.92404 46.7814 0
    endloop
  endfacet
  facet normal 0.0941079 0.995562 -0
    outer loop
      vertex 5.969 47.2495 0
      vertex 2.9904 47.531 9.525
      vertex 5.969 47.2495 9.525
    endloop
  endfacet
  facet normal 0.0941079 0.995562 0
    outer loop
      vertex 2.9904 47.531 9.525
      vertex 5.969 47.2495 0
      vertex 2.9904 47.531 0
    endloop
  endfacet
  facet normal 0.0314114 0.999507 -0
    outer loop
      vertex 2.9904 47.531 0
      vertex 0 47.625 9.525
      vertex 2.9904 47.531 9.525
    endloop
  endfacet
  facet normal 0.0314114 0.999507 0
    outer loop
      vertex 0 47.625 9.525
      vertex 2.9904 47.531 0
      vertex 0 47.625 0
    endloop
  endfacet
  facet normal 0.338738 0.940881 -0
    outer loop
      vertex 17.5319 44.2806 0
      vertex 14.7169 45.2941 9.525
      vertex 17.5319 44.2806 9.525
    endloop
  endfacet
  facet normal 0.338738 0.940881 0
    outer loop
      vertex 14.7169 45.2941 9.525
      vertex 17.5319 44.2806 0
      vertex 14.7169 45.2941 0
    endloop
  endfacet
  facet normal 0.453991 0.891006 -0
    outer loop
      vertex 22.9435 41.7341 0
      vertex 20.2777 43.0924 9.525
      vertex 22.9435 41.7341 9.525
    endloop
  endfacet
  facet normal 0.453991 0.891006 0
    outer loop
      vertex 20.2777 43.0924 9.525
      vertex 22.9435 41.7341 0
      vertex 20.2777 43.0924 0
    endloop
  endfacet
  facet normal 0.509042 0.860742 -0
    outer loop
      vertex 25.5187 40.2111 0
      vertex 22.9435 41.7341 9.525
      vertex 25.5187 40.2111 9.525
    endloop
  endfacet
  facet normal 0.509042 0.860742 0
    outer loop
      vertex 22.9435 41.7341 9.525
      vertex 25.5187 40.2111 0
      vertex 22.9435 41.7341 0
    endloop
  endfacet
  facet normal 0.661312 0.750111 -0
    outer loop
      vertex 32.6016 34.7171 0
      vertex 30.3573 36.6957 9.525
      vertex 32.6016 34.7171 9.525
    endloop
  endfacet
  facet normal 0.661312 0.750111 0
    outer loop
      vertex 30.3573 36.6957 9.525
      vertex 32.6016 34.7171 0
      vertex 30.3573 36.6957 0
    endloop
  endfacet
  facet normal -0.750111 0.661312 0
    outer loop
      vertex -36.6957 30.3573 0
      vertex -34.7171 32.6016 9.525
      vertex -34.7171 32.6016 0
    endloop
  endfacet
  facet normal -0.750111 0.661312 0
    outer loop
      vertex -34.7171 32.6016 9.525
      vertex -36.6957 30.3573 0
      vertex -36.6957 30.3573 9.525
    endloop
  endfacet
  facet normal -0.790155 0.612907 0
    outer loop
      vertex -38.5294 27.9933 0
      vertex -36.6957 30.3573 9.525
      vertex -36.6957 30.3573 0
    endloop
  endfacet
  facet normal -0.790155 0.612907 0
    outer loop
      vertex -36.6957 30.3573 9.525
      vertex -38.5294 27.9933 0
      vertex -38.5294 27.9933 9.525
    endloop
  endfacet
  facet normal -0.891006 0.453991 0
    outer loop
      vertex -43.0924 20.2777 0
      vertex -41.7341 22.9435 9.525
      vertex -41.7341 22.9435 0
    endloop
  endfacet
  facet normal -0.891006 0.453991 0
    outer loop
      vertex -41.7341 22.9435 9.525
      vertex -43.0924 20.2777 0
      vertex -43.0924 20.2777 9.525
    endloop
  endfacet
  facet normal -0.960294 0.278991 0
    outer loop
      vertex -46.1288 11.8439 0
      vertex -45.2941 14.7169 9.525
      vertex -45.2941 14.7169 0
    endloop
  endfacet
  facet normal -0.960294 0.278991 0
    outer loop
      vertex -45.2941 14.7169 9.525
      vertex -46.1288 11.8439 0
      vertex -46.1288 11.8439 9.525
    endloop
  endfacet
  facet normal -0.995562 0.0941079 0
    outer loop
      vertex -47.531 2.9904 0
      vertex -47.2495 5.969 9.525
      vertex -47.2495 5.969 0
    endloop
  endfacet
  facet normal -0.995562 0.0941079 0
    outer loop
      vertex -47.2495 5.969 9.525
      vertex -47.531 2.9904 0
      vertex -47.531 2.9904 9.525
    endloop
  endfacet
  facet normal 0 0 1
    outer loop
      vertex 9.5062 0.59808 9.525
      vertex 47.531 2.9904 9.525
      vertex 47.2495 5.969 9.525
    endloop
  endfacet
  facet normal 0 0 1
    outer loop
      vertex 9.44989 1.1938 9.525
      vertex 47.2495 5.969 9.525
      vertex 46.7814 8.92404 9.525
    endloop
  endfacet
  facet normal 0 0 1
    outer loop
      vertex 9.35629 1.78481 9.525
      vertex 46.7814 8.92404 9.525
      vertex 46.1288 11.8439 9.525
    endloop
  endfacet
  facet normal 0 0 1
    outer loop
      vertex 9.22575 2.36877 9.525
      vertex 46.1288 11.8439 9.525
      vertex 45.2941 14.7169 9.525
    endloop
  endfacet
  facet normal 0 0 1
    outer loop
      vertex 9.05881 2.94339 9.525
      vertex 45.2941 14.7169 9.525
      vertex 44.2806 17.5319 9.525
    endloop
  endfacet
  facet normal 0 0 1
    outer loop
      vertex 8.85612 3.50639 9.525
      vertex 44.2806 17.5319 9.525
      vertex 43.0924 20.2777 9.525
    endloop
  endfacet
  facet normal 0 0 1
    outer loop
      vertex 8.61848 4.05555 9.525
      vertex 43.0924 20.2777 9.525
      vertex 41.7341 22.9435 9.525
    endloop
  endfacet
  facet normal 0 0 1
    outer loop
      vertex 8.34682 4.5887 9.525
      vertex 41.7341 22.9435 9.525
      vertex 40.2111 25.5187 9.525
    endloop
  endfacet
  facet normal 0 0 1
    outer loop
      vertex 8.04222 5.10375 9.525
      vertex 40.2111 25.5187 9.525
      vertex 38.5294 27.9933 9.525
    endloop
  endfacet
  facet normal 0 0 1
    outer loop
      vertex 7.70589 5.59865 9.525
      vertex 38.5294 27.9933 9.525
      vertex 36.6957 30.3573 9.525
    endloop
  endfacet
  facet normal 0 0 1
    outer loop
      vertex 7.33914 6.07146 9.525
      vertex 36.6957 30.3573 9.525
      vertex 34.7171 32.6016 9.525
    endloop
  endfacet
  facet normal 0 0 1
    outer loop
      vertex 6.94343 6.52031 9.525
      vertex 34.7171 32.6016 9.525
      vertex 32.6016 34.7171 9.525
    endloop
  endfacet
  facet normal 0 0 1
    outer loop
      vertex 6.52031 6.94343 9.525
      vertex 32.6016 34.7171 9.525
      vertex 30.3573 36.6957 9.525
    endloop
  endfacet
  facet normal 0 0 1
    outer loop
      vertex 6.07146 7.33914 9.525
      vertex 30.3573 36.6957 9.525
      vertex 27.9933 38.5294 9.525
    endloop
  endfacet
  facet normal 0 0 1
    outer loop
      vertex 5.59865 7.70589 9.525
      vertex 27.9933 38.5294 9.525
      vertex 25.5187 40.2111 9.525
    endloop
  endfacet
  facet normal 0 0 1
    outer loop
      vertex 5.10375 8.04222 9.525
      vertex 25.5187 40.2111 9.525
      vertex 22.9435 41.7341 9.525
    endloop
  endfacet
  facet normal 0 0 1
    outer loop
      vertex 4.5887 8.34682 9.525
      vertex 22.9435 41.7341 9.525
      vertex 20.2777 43.0924 9.525
    endloop
  endfacet
  facet normal 0 0 1
    outer loop
      vertex 4.05555 8.61848 9.525
      vertex 20.2777 43.0924 9.525
      vertex 17.5319 44.2806 9.525
    endloop
  endfacet
  facet normal 0 0 1
    outer loop
      vertex 3.50639 8.85612 9.525
      vertex 17.5319 44.2806 9.525
      vertex 14.7169 45.2941 9.525
    endloop
  endfacet
  facet normal 0 0 1
    outer loop
      vertex 2.94339 9.05881 9.525
      vertex 14.7169 45.2941 9.525
      vertex 11.8439 46.1288 9.525
    endloop
  endfacet
  facet normal 0 0 1
    outer loop
      vertex 38.5294 27.9933 9.525
      vertex 7.70589 5.59865 9.525
      vertex 8.04222 5.10375 9.525
    endloop
  endfacet
  facet normal 0 0 1
    outer loop
      vertex 47.625 0 9.525
      vertex 9.5062 0.59808 9.525
      vertex 9.525 0 9.525
    endloop
  endfacet
  facet normal 0 0 1
    outer loop
      vertex 47.531 2.9904 9.525
      vertex 9.5062 0.59808 9.525
      vertex 47.625 0 9.525
    endloop
  endfacet
  facet normal 0 -0 1
    outer loop
      vertex 9.5062 0.59808 9.525
      vertex 47.2495 5.969 9.525
      vertex 9.44989 1.1938 9.525
    endloop
  endfacet
  facet normal 0 0 1
    outer loop
      vertex 46.7814 8.92404 9.525
      vertex 9.35629 1.78481 9.525
      vertex 9.44989 1.1938 9.525
    endloop
  endfacet
  facet normal 0 0 1
    outer loop
      vertex 46.1288 11.8439 9.525
      vertex 9.22575 2.36877 9.525
      vertex 9.35629 1.78481 9.525
    endloop
  endfacet
  facet normal 0 0 1
    outer loop
      vertex 2.36877 9.22575 9.525
      vertex 11.8439 46.1288 9.525
      vertex 8.92404 46.7814 9.525
    endloop
  endfacet
  facet normal 0 0 1
    outer loop
      vertex 45.2941 14.7169 9.525
      vertex 9.05881 2.94339 9.525
      vertex 9.22575 2.36877 9.525
    endloop
  endfacet
  facet normal 0 0 1
    outer loop
      vertex 44.2806 17.5319 9.525
      vertex 8.85612 3.50639 9.525
      vertex 9.05881 2.94339 9.525
    endloop
  endfacet
  facet normal 0 0 1
    outer loop
      vertex 43.0924 20.2777 9.525
      vertex 8.61848 4.05555 9.525
      vertex 8.85612 3.50639 9.525
    endloop
  endfacet
  facet normal 0 0 1
    outer loop
      vertex 41.7341 22.9435 9.525
      vertex 8.34682 4.5887 9.525
      vertex 8.61848 4.05555 9.525
    endloop
  endfacet
  facet normal 0 0 1
    outer loop
      vertex 40.2111 25.5187 9.525
      vertex 8.04222 5.10375 9.525
      vertex 8.34682 4.5887 9.525
    endloop
  endfacet
  facet normal 0 0 1
    outer loop
      vertex 36.6957 30.3573 9.525
      vertex 7.33914 6.07146 9.525
      vertex 7.70589 5.59865 9.525
    endloop
  endfacet
  facet normal 0 0 1
    outer loop
      vertex 34.7171 32.6016 9.525
      vertex 6.94343 6.52031 9.525
      vertex 7.33914 6.07146 9.525
    endloop
  endfacet
  facet normal 0 0 1
    outer loop
      vertex 32.6016 34.7171 9.525
      vertex 6.52031 6.94343 9.525
      vertex 6.94343 6.52031 9.525
    endloop
  endfacet
  facet normal 0 0 1
    outer loop
      vertex 30.3573 36.6957 9.525
      vertex 6.07146 7.33914 9.525
      vertex 6.52031 6.94343 9.525
    endloop
  endfacet
  facet normal 0 0 1
    outer loop
      vertex 1.78481 9.35629 9.525
      vertex 8.92404 46.7814 9.525
      vertex 5.969 47.2495 9.525
    endloop
  endfacet
  facet normal 0 0 1
    outer loop
      vertex 27.9933 38.5294 9.525
      vertex 5.59865 7.70589 9.525
      vertex 6.07146 7.33914 9.525
    endloop
  endfacet
  facet normal 0 0 1
    outer loop
      vertex 25.5187 40.2111 9.525
      vertex 5.10375 8.04222 9.525
      vertex 5.59865 7.70589 9.525
    endloop
  endfacet
  facet normal 0 0 1
    outer loop
      vertex 22.9435 41.7341 9.525
      vertex 4.5887 8.34682 9.525
      vertex 5.10375 8.04222 9.525
    endloop
  endfacet
  facet normal 0 0 1
    outer loop
      vertex 20.2777 43.0924 9.525
      vertex 4.05555 8.61848 9.525
      vertex 4.5887 8.34682 9.525
    endloop
  endfacet
  facet normal 0 0 1
    outer loop
      vertex 17.5319 44.2806 9.525
      vertex 3.50639 8.85612 9.525
      vertex 4.05555 8.61848 9.525
    endloop
  endfacet
  facet normal 0 0 1
    outer loop
      vertex 1.1938 9.44989 9.525
      vertex 5.969 47.2495 9.525
      vertex 2.9904 47.531 9.525
    endloop
  endfacet
  facet normal 0 0 1
    outer loop
      vertex 14.7169 45.2941 9.525
      vertex 2.94339 9.05881 9.525
      vertex 3.50639 8.85612 9.525
    endloop
  endfacet
  facet normal 0 0 1
    outer loop
      vertex 11.8439 46.1288 9.525
      vertex 2.36877 9.22575 9.525
      vertex 2.94339 9.05881 9.525
    endloop
  endfacet
  facet normal 0 0 1
    outer loop
      vertex 8.92404 46.7814 9.525
      vertex 1.78481 9.35629 9.525
      vertex 2.36877 9.22575 9.525
    endloop
  endfacet
  facet normal 0 0 1
    outer loop
      vertex 5.969 47.2495 9.525
      vertex 1.1938 9.44989 9.525
      vertex 1.78481 9.35629 9.525
    endloop
  endfacet
  facet normal 0 0 1
    outer loop
      vertex 2.9904 47.531 9.525
      vertex 0.59808 9.5062 9.525
      vertex 1.1938 9.44989 9.525
    endloop
  endfacet
  facet normal 0 0 1
    outer loop
      vertex 0 47.625 9.525
      vertex 0.59808 9.5062 9.525
      vertex 2.9904 47.531 9.525
    endloop
  endfacet
  facet normal 0 0 1
    outer loop
      vertex 0 47.625 9.525
      vertex 0 9.525 9.525
      vertex 0.59808 9.5062 9.525
    endloop
  endfacet
  facet normal 0 0 1
    outer loop
      vertex 0 47.625 9.525
      vertex -0.59808 9.5062 9.525
      vertex 0 9.525 9.525
    endloop
  endfacet
  facet normal -0 0 1
    outer loop
      vertex -2.9904 47.531 9.525
      vertex -0.59808 9.5062 9.525
      vertex 0 47.625 9.525
    endloop
  endfacet
  facet normal 0 0 1
    outer loop
      vertex -0.59808 9.5062 9.525
      vertex -2.9904 47.531 9.525
      vertex -1.1938 9.44989 9.525
    endloop
  endfacet
  facet normal -0 0 1
    outer loop
      vertex -5.969 47.2495 9.525
      vertex -1.1938 9.44989 9.525
      vertex -2.9904 47.531 9.525
    endloop
  endfacet
  facet normal 0 0 1
    outer loop
      vertex -1.1938 9.44989 9.525
      vertex -5.969 47.2495 9.525
      vertex -1.78481 9.35629 9.525
    endloop
  endfacet
  facet normal -0 0 1
    outer loop
      vertex -8.92404 46.7814 9.525
      vertex -1.78481 9.35629 9.525
      vertex -5.969 47.2495 9.525
    endloop
  endfacet
  facet normal 0 0 1
    outer loop
      vertex -1.78481 9.35629 9.525
      vertex -8.92404 46.7814 9.525
      vertex -2.36877 9.22575 9.525
    endloop
  endfacet
  facet normal -0 0 1
    outer loop
      vertex -11.8439 46.1288 9.525
      vertex -2.36877 9.22575 9.525
      vertex -8.92404 46.7814 9.525
    endloop
  endfacet
  facet normal 0 0 1
    outer loop
      vertex -2.36877 9.22575 9.525
      vertex -11.8439 46.1288 9.525
      vertex -2.94339 9.05881 9.525
    endloop
  endfacet
  facet normal -0 0 1
    outer loop
      vertex -14.7169 45.2941 9.525
      vertex -2.94339 9.05881 9.525
      vertex -11.8439 46.1288 9.525
    endloop
  endfacet
  facet normal 0 0 1
    outer loop
      vertex -2.94339 9.05881 9.525
      vertex -14.7169 45.2941 9.525
      vertex -3.50639 8.85612 9.525
    endloop
  endfacet
  facet normal -0 0 1
    outer loop
      vertex -17.5319 44.2806 9.525
      vertex -3.50639 8.85612 9.525
      vertex -14.7169 45.2941 9.525
    endloop
  endfacet
  facet normal 0 0 1
    outer loop
      vertex -3.50639 8.85612 9.525
      vertex -17.5319 44.2806 9.525
      vertex -4.05555 8.61848 9.525
    endloop
  endfacet
  facet normal -0 0 1
    outer loop
      vertex -20.2777 43.0924 9.525
      vertex -4.05555 8.61848 9.525
      vertex -17.5319 44.2806 9.525
    endloop
  endfacet
  facet normal 0 0 1
    outer loop
      vertex -4.05555 8.61848 9.525
      vertex -20.2777 43.0924 9.525
      vertex -4.5887 8.34682 9.525
    endloop
  endfacet
  facet normal -0 0 1
    outer loop
      vertex -22.9435 41.7341 9.525
      vertex -4.5887 8.34682 9.525
      vertex -20.2777 43.0924 9.525
    endloop
  endfacet
  facet normal 0 0 1
    outer loop
      vertex -4.5887 8.34682 9.525
      vertex -22.9435 41.7341 9.525
      vertex -5.10375 8.04222 9.525
    endloop
  endfacet
  facet normal -0 0 1
    outer loop
      vertex -25.5187 40.2111 9.525
      vertex -5.10375 8.04222 9.525
      vertex -22.9435 41.7341 9.525
    endloop
  endfacet
  facet normal 0 0 1
    outer loop
      vertex -5.10375 8.04222 9.525
      vertex -25.5187 40.2111 9.525
      vertex -5.59865 7.70589 9.525
    endloop
  endfacet
  facet normal -0 0 1
    outer loop
      vertex -27.9933 38.5294 9.525
      vertex -5.59865 7.70589 9.525
      vertex -25.5187 40.2111 9.525
    endloop
  endfacet
  facet normal 0 0 1
    outer loop
      vertex -5.59865 7.70589 9.525
      vertex -27.9933 38.5294 9.525
      vertex -6.07146 7.33914 9.525
    endloop
  endfacet
  facet normal -0 0 1
    outer loop
      vertex -30.3573 36.6957 9.525
      vertex -6.07146 7.33914 9.525
      vertex -27.9933 38.5294 9.525
    endloop
  endfacet
  facet normal 0 0 1
    outer loop
      vertex -6.07146 7.33914 9.525
      vertex -30.3573 36.6957 9.525
      vertex -6.52031 6.94343 9.525
    endloop
  endfacet
  facet normal -0 0 1
    outer loop
      vertex -32.6016 34.7171 9.525
      vertex -6.52031 6.94343 9.525
      vertex -30.3573 36.6957 9.525
    endloop
  endfacet
  facet normal 0 0 1
    outer loop
      vertex -6.52031 6.94343 9.525
      vertex -32.6016 34.7171 9.525
      vertex -6.94343 6.52031 9.525
    endloop
  endfacet
  facet normal -0 0 1
    outer loop
      vertex -34.7171 32.6016 9.525
      vertex -6.94343 6.52031 9.525
      vertex -32.6016 34.7171 9.525
    endloop
  endfacet
  facet normal 0 0 1
    outer loop
      vertex -6.94343 6.52031 9.525
      vertex -34.7171 32.6016 9.525
      vertex -7.33914 6.07146 9.525
    endloop
  endfacet
  facet normal -0 0 1
    outer loop
      vertex -36.6957 30.3573 9.525
      vertex -7.33914 6.07146 9.525
      vertex -34.7171 32.6016 9.525
    endloop
  endfacet
  facet normal 0 0 1
    outer loop
      vertex -7.33914 6.07146 9.525
      vertex -36.6957 30.3573 9.525
      vertex -7.70589 5.59865 9.525
    endloop
  endfacet
  facet normal -0 0 1
    outer loop
      vertex -38.5294 27.9933 9.525
      vertex -7.70589 5.59865 9.525
      vertex -36.6957 30.3573 9.525
    endloop
  endfacet
  facet normal 0 0 1
    outer loop
      vertex -7.70589 5.59865 9.525
      vertex -38.5294 27.9933 9.525
      vertex -8.04222 5.10375 9.525
    endloop
  endfacet
  facet normal -0 0 1
    outer loop
      vertex -40.2111 25.5187 9.525
      vertex -8.04222 5.10375 9.525
      vertex -38.5294 27.9933 9.525
    endloop
  endfacet
  facet normal 0 0 1
    outer loop
      vertex -8.04222 5.10375 9.525
      vertex -40.2111 25.5187 9.525
      vertex -8.34682 4.5887 9.525
    endloop
  endfacet
  facet normal -0 0 1
    outer loop
      vertex -41.7341 22.9435 9.525
      vertex -8.34682 4.5887 9.525
      vertex -40.2111 25.5187 9.525
    endloop
  endfacet
  facet normal 0 0 1
    outer loop
      vertex -8.34682 4.5887 9.525
      vertex -41.7341 22.9435 9.525
      vertex -8.61848 4.05555 9.525
    endloop
  endfacet
  facet normal -0 0 1
    outer loop
      vertex -43.0924 20.2777 9.525
      vertex -8.61848 4.05555 9.525
      vertex -41.7341 22.9435 9.525
    endloop
  endfacet
  facet normal 0 0 1
    outer loop
      vertex -8.61848 4.05555 9.525
      vertex -43.0924 20.2777 9.525
      vertex -8.85612 3.50639 9.525
    endloop
  endfacet
  facet normal -0 0 1
    outer loop
      vertex -44.2806 17.5319 9.525
      vertex -8.85612 3.50639 9.525
      vertex -43.0924 20.2777 9.525
    endloop
  endfacet
  facet normal 0 0 1
    outer loop
      vertex -8.85612 3.50639 9.525
      vertex -44.2806 17.5319 9.525
      vertex -9.05881 2.94339 9.525
    endloop
  endfacet
  facet normal -0 0 1
    outer loop
      vertex -45.2941 14.7169 9.525
      vertex -9.05881 2.94339 9.525
      vertex -44.2806 17.5319 9.525
    endloop
  endfacet
  facet normal 0 0 1
    outer loop
      vertex -9.05881 2.94339 9.525
      vertex -45.2941 14.7169 9.525
      vertex -9.22575 2.36877 9.525
    endloop
  endfacet
  facet normal -0 0 1
    outer loop
      vertex -46.1288 11.8439 9.525
      vertex -9.22575 2.36877 9.525
      vertex -45.2941 14.7169 9.525
    endloop
  endfacet
  facet normal 0 0 1
    outer loop
      vertex -9.22575 2.36877 9.525
      vertex -46.1288 11.8439 9.525
      vertex -9.35629 1.78481 9.525
    endloop
  endfacet
  facet normal -0 0 1
    outer loop
      vertex -46.7814 8.92404 9.525
      vertex -9.35629 1.78481 9.525
      vertex -46.1288 11.8439 9.525
    endloop
  endfacet
  facet normal 0 0 1
    outer loop
      vertex -9.35629 1.78481 9.525
      vertex -46.7814 8.92404 9.525
      vertex -9.44989 1.1938 9.525
    endloop
  endfacet
  facet normal -0 0 1
    outer loop
      vertex -47.2495 5.969 9.525
      vertex -9.44989 1.1938 9.525
      vertex -46.7814 8.92404 9.525
    endloop
  endfacet
  facet normal 0 0 1
    outer loop
      vertex -9.44989 1.1938 9.525
      vertex -47.2495 5.969 9.525
      vertex -9.5062 0.59808 9.525
    endloop
  endfacet
  facet normal -0 0 1
    outer loop
      vertex -47.531 2.9904 9.525
      vertex -9.5062 0.59808 9.525
      vertex -47.2495 5.969 9.525
    endloop
  endfacet
  facet normal 0 0 1
    outer loop
      vertex -9.5062 0.59808 9.525
      vertex -47.531 2.9904 9.525
      vertex -9.525 0 9.525
    endloop
  endfacet
  facet normal 0 0 1
    outer loop
      vertex -9.525 0 9.525
      vertex -47.531 2.9904 9.525
      vertex -47.625 0 9.525
    endloop
  endfacet
  facet normal -0.509042 0.860742 0
    outer loop
      vertex -22.9435 41.7341 0
      vertex -25.5187 40.2111 9.525
      vertex -22.9435 41.7341 9.525
    endloop
  endfacet
  facet normal -0.509042 0.860742 0
    outer loop
      vertex -25.5187 40.2111 9.525
      vertex -22.9435 41.7341 0
      vertex -25.5187 40.2111 0
    endloop
  endfacet
  facet normal -0.612907 0.790155 0
    outer loop
      vertex -27.9933 38.5294 0
      vertex -30.3573 36.6957 9.525
      vertex -27.9933 38.5294 9.525
    endloop
  endfacet
  facet normal -0.612907 0.790155 0
    outer loop
      vertex -30.3573 36.6957 9.525
      vertex -27.9933 38.5294 0
      vertex -30.3573 36.6957 0
    endloop
  endfacet
  facet normal -0.397148 0.917755 0
    outer loop
      vertex -17.5319 44.2806 0
      vertex -20.2777 43.0924 9.525
      vertex -17.5319 44.2806 9.525
    endloop
  endfacet
  facet normal -0.397148 0.917755 0
    outer loop
      vertex -20.2777 43.0924 9.525
      vertex -17.5319 44.2806 0
      vertex -20.2777 43.0924 0
    endloop
  endfacet
  facet normal -0.278991 0.960294 0
    outer loop
      vertex -11.8439 46.1288 0
      vertex -14.7169 45.2941 9.525
      vertex -11.8439 46.1288 9.525
    endloop
  endfacet
  facet normal -0.278991 0.960294 0
    outer loop
      vertex -14.7169 45.2941 9.525
      vertex -11.8439 46.1288 0
      vertex -14.7169 45.2941 0
    endloop
  endfacet
  facet normal -0.0941079 0.995562 0
    outer loop
      vertex -2.9904 47.531 0
      vertex -5.969 47.2495 9.525
      vertex -2.9904 47.531 9.525
    endloop
  endfacet
  facet normal -0.0941079 0.995562 0
    outer loop
      vertex -5.969 47.2495 9.525
      vertex -2.9904 47.531 0
      vertex -5.969 47.2495 0
    endloop
  endfacet
  facet normal 0 0 -1
    outer loop
      vertex 9.5062 0.59808 0
      vertex 47.531 2.9904 0
      vertex 47.625 0 0
    endloop
  endfacet
  facet normal -0 0 -1
    outer loop
      vertex 47.531 2.9904 0
      vertex 9.5062 0.59808 0
      vertex 47.2495 5.969 0
    endloop
  endfacet
  facet normal -0 0 -1
    outer loop
      vertex 47.2495 5.969 0
      vertex 9.44989 1.1938 0
      vertex 46.7814 8.92404 0
    endloop
  endfacet
  facet normal 0 0 -1
    outer loop
      vertex 9.35629 1.78481 0
      vertex 46.7814 8.92404 0
      vertex 9.44989 1.1938 0
    endloop
  endfacet
  facet normal 0 0 -1
    outer loop
      vertex 9.22575 2.36877 0
      vertex 46.1288 11.8439 0
      vertex 9.35629 1.78481 0
    endloop
  endfacet
  facet normal -0 0 -1
    outer loop
      vertex 46.1288 11.8439 0
      vertex 9.22575 2.36877 0
      vertex 45.2941 14.7169 0
    endloop
  endfacet
  facet normal -0 0 -1
    outer loop
      vertex 45.2941 14.7169 0
      vertex 9.05881 2.94339 0
      vertex 44.2806 17.5319 0
    endloop
  endfacet
  facet normal 0 0 -1
    outer loop
      vertex 8.85612 3.50639 0
      vertex 44.2806 17.5319 0
      vertex 9.05881 2.94339 0
    endloop
  endfacet
  facet normal 0 0 -1
    outer loop
      vertex 8.61848 4.05555 0
      vertex 43.0924 20.2777 0
      vertex 8.85612 3.50639 0
    endloop
  endfacet
  facet normal -0 0 -1
    outer loop
      vertex 43.0924 20.2777 0
      vertex 8.61848 4.05555 0
      vertex 41.7341 22.9435 0
    endloop
  endfacet
  facet normal -0 0 -1
    outer loop
      vertex 41.7341 22.9435 0
      vertex 8.34682 4.5887 0
      vertex 40.2111 25.5187 0
    endloop
  endfacet
  facet normal 0 0 -1
    outer loop
      vertex 8.04222 5.10375 0
      vertex 40.2111 25.5187 0
      vertex 8.34682 4.5887 0
    endloop
  endfacet
  facet normal 0 0 -1
    outer loop
      vertex 7.70589 5.59865 0
      vertex 38.5294 27.9933 0
      vertex 8.04222 5.10375 0
    endloop
  endfacet
  facet normal -0 0 -1
    outer loop
      vertex 38.5294 27.9933 0
      vertex 7.70589 5.59865 0
      vertex 36.6957 30.3573 0
    endloop
  endfacet
  facet normal -0 0 -1
    outer loop
      vertex 36.6957 30.3573 0
      vertex 7.33914 6.07146 0
      vertex 34.7171 32.6016 0
    endloop
  endfacet
  facet normal 0 0 -1
    outer loop
      vertex 6.94343 6.52031 0
      vertex 34.7171 32.6016 0
      vertex 7.33914 6.07146 0
    endloop
  endfacet
  facet normal 0 0 -1
    outer loop
      vertex 6.52031 6.94343 0
      vertex 32.6016 34.7171 0
      vertex 6.94343 6.52031 0
    endloop
  endfacet
  facet normal -0 0 -1
    outer loop
      vertex 32.6016 34.7171 0
      vertex 6.52031 6.94343 0
      vertex 30.3573 36.6957 0
    endloop
  endfacet
  facet normal -0 0 -1
    outer loop
      vertex 30.3573 36.6957 0
      vertex 6.07146 7.33914 0
      vertex 27.9933 38.5294 0
    endloop
  endfacet
  facet normal 0 0 -1
    outer loop
      vertex 5.59865 7.70589 0
      vertex 27.9933 38.5294 0
      vertex 6.07146 7.33914 0
    endloop
  endfacet
  facet normal 0 0 -1
    outer loop
      vertex 9.5062 0.59808 0
      vertex 47.625 0 0
      vertex 9.525 0 0
    endloop
  endfacet
  facet normal 0 0 -1
    outer loop
      vertex 47.2495 5.969 0
      vertex 9.5062 0.59808 0
      vertex 9.44989 1.1938 0
    endloop
  endfacet
  facet normal -0 0 -1
    outer loop
      vertex 46.7814 8.92404 0
      vertex 9.35629 1.78481 0
      vertex 46.1288 11.8439 0
    endloop
  endfacet
  facet normal 0 0 -1
    outer loop
      vertex 9.05881 2.94339 0
      vertex 45.2941 14.7169 0
      vertex 9.22575 2.36877 0
    endloop
  endfacet
  facet normal -0 0 -1
    outer loop
      vertex 44.2806 17.5319 0
      vertex 8.85612 3.50639 0
      vertex 43.0924 20.2777 0
    endloop
  endfacet
  facet normal 0 0 -1
    outer loop
      vertex 8.34682 4.5887 0
      vertex 41.7341 22.9435 0
      vertex 8.61848 4.05555 0
    endloop
  endfacet
  facet normal -0 0 -1
    outer loop
      vertex 40.2111 25.5187 0
      vertex 8.04222 5.10375 0
      vertex 38.5294 27.9933 0
    endloop
  endfacet
  facet normal 0 0 -1
    outer loop
      vertex 7.33914 6.07146 0
      vertex 36.6957 30.3573 0
      vertex 7.70589 5.59865 0
    endloop
  endfacet
  facet normal -0 0 -1
    outer loop
      vertex 34.7171 32.6016 0
      vertex 6.94343 6.52031 0
      vertex 32.6016 34.7171 0
    endloop
  endfacet
  facet normal 0 0 -1
    outer loop
      vertex 6.07146 7.33914 0
      vertex 30.3573 36.6957 0
      vertex 6.52031 6.94343 0
    endloop
  endfacet
  facet normal -0 0 -1
    outer loop
      vertex 27.9933 38.5294 0
      vertex 5.59865 7.70589 0
      vertex 25.5187 40.2111 0
    endloop
  endfacet
  facet normal 0 0 -1
    outer loop
      vertex 5.10375 8.04222 0
      vertex 25.5187 40.2111 0
      vertex 5.59865 7.70589 0
    endloop
  endfacet
  facet normal -0 0 -1
    outer loop
      vertex 25.5187 40.2111 0
      vertex 5.10375 8.04222 0
      vertex 22.9435 41.7341 0
    endloop
  endfacet
  facet normal 0 0 -1
    outer loop
      vertex 4.5887 8.34682 0
      vertex 22.9435 41.7341 0
      vertex 5.10375 8.04222 0
    endloop
  endfacet
  facet normal -0 0 -1
    outer loop
      vertex 22.9435 41.7341 0
      vertex 4.5887 8.34682 0
      vertex 20.2777 43.0924 0
    endloop
  endfacet
  facet normal 0 0 -1
    outer loop
      vertex 4.05555 8.61848 0
      vertex 20.2777 43.0924 0
      vertex 4.5887 8.34682 0
    endloop
  endfacet
  facet normal -0 0 -1
    outer loop
      vertex 20.2777 43.0924 0
      vertex 4.05555 8.61848 0
      vertex 17.5319 44.2806 0
    endloop
  endfacet
  facet normal 0 0 -1
    outer loop
      vertex 3.50639 8.85612 0
      vertex 17.5319 44.2806 0
      vertex 4.05555 8.61848 0
    endloop
  endfacet
  facet normal -0 0 -1
    outer loop
      vertex 17.5319 44.2806 0
      vertex 3.50639 8.85612 0
      vertex 14.7169 45.2941 0
    endloop
  endfacet
  facet normal 0 0 -1
    outer loop
      vertex 2.94339 9.05881 0
      vertex 14.7169 45.2941 0
      vertex 3.50639 8.85612 0
    endloop
  endfacet
  facet normal -0 0 -1
    outer loop
      vertex 14.7169 45.2941 0
      vertex 2.94339 9.05881 0
      vertex 11.8439 46.1288 0
    endloop
  endfacet
  facet normal 0 0 -1
    outer loop
      vertex 2.36877 9.22575 0
      vertex 11.8439 46.1288 0
      vertex 2.94339 9.05881 0
    endloop
  endfacet
  facet normal -0 0 -1
    outer loop
      vertex 11.8439 46.1288 0
      vertex 2.36877 9.22575 0
      vertex 8.92404 46.7814 0
    endloop
  endfacet
  facet normal 0 0 -1
    outer loop
      vertex 1.78481 9.35629 0
      vertex 8.92404 46.7814 0
      vertex 2.36877 9.22575 0
    endloop
  endfacet
  facet normal -0 0 -1
    outer loop
      vertex 8.92404 46.7814 0
      vertex 1.78481 9.35629 0
      vertex 5.969 47.2495 0
    endloop
  endfacet
  facet normal 0 0 -1
    outer loop
      vertex 1.1938 9.44989 0
      vertex 5.969 47.2495 0
      vertex 1.78481 9.35629 0
    endloop
  endfacet
  facet normal -0 0 -1
    outer loop
      vertex 5.969 47.2495 0
      vertex 1.1938 9.44989 0
      vertex 2.9904 47.531 0
    endloop
  endfacet
  facet normal 0 0 -1
    outer loop
      vertex 0.59808 9.5062 0
      vertex 2.9904 47.531 0
      vertex 1.1938 9.44989 0
    endloop
  endfacet
  facet normal 0 0 -1
    outer loop
      vertex 0 9.525 0
      vertex 2.9904 47.531 0
      vertex 0.59808 9.5062 0
    endloop
  endfacet
  facet normal 0 0 -1
    outer loop
      vertex 0 9.525 0
      vertex 0 47.625 0
      vertex 2.9904 47.531 0
    endloop
  endfacet
  facet normal 0 0 -1
    outer loop
      vertex -0.59808 9.5062 0
      vertex 0 47.625 0
      vertex 0 9.525 0
    endloop
  endfacet
  facet normal 0 0 -1
    outer loop
      vertex -2.9904 47.531 0
      vertex -0.59808 9.5062 0
      vertex -1.1938 9.44989 0
    endloop
  endfacet
  facet normal 0 0 -1
    outer loop
      vertex -5.969 47.2495 0
      vertex -1.1938 9.44989 0
      vertex -1.78481 9.35629 0
    endloop
  endfacet
  facet normal 0 0 -1
    outer loop
      vertex -8.92404 46.7814 0
      vertex -1.78481 9.35629 0
      vertex -2.36877 9.22575 0
    endloop
  endfacet
  facet normal 0 0 -1
    outer loop
      vertex -11.8439 46.1288 0
      vertex -2.36877 9.22575 0
      vertex -2.94339 9.05881 0
    endloop
  endfacet
  facet normal 0 0 -1
    outer loop
      vertex -0.59808 9.5062 0
      vertex -2.9904 47.531 0
      vertex 0 47.625 0
    endloop
  endfacet
  facet normal 0 0 -1
    outer loop
      vertex -14.7169 45.2941 0
      vertex -2.94339 9.05881 0
      vertex -3.50639 8.85612 0
    endloop
  endfacet
  facet normal 0 0 -1
    outer loop
      vertex -17.5319 44.2806 0
      vertex -3.50639 8.85612 0
      vertex -4.05555 8.61848 0
    endloop
  endfacet
  facet normal 0 0 -1
    outer loop
      vertex -20.2777 43.0924 0
      vertex -4.05555 8.61848 0
      vertex -4.5887 8.34682 0
    endloop
  endfacet
  facet normal 0 0 -1
    outer loop
      vertex -22.9435 41.7341 0
      vertex -4.5887 8.34682 0
      vertex -5.10375 8.04222 0
    endloop
  endfacet
  facet normal 0 0 -1
    outer loop
      vertex -25.5187 40.2111 0
      vertex -5.10375 8.04222 0
      vertex -5.59865 7.70589 0
    endloop
  endfacet
  facet normal 0 0 -1
    outer loop
      vertex -1.1938 9.44989 0
      vertex -5.969 47.2495 0
      vertex -2.9904 47.531 0
    endloop
  endfacet
  facet normal 0 0 -1
    outer loop
      vertex -27.9933 38.5294 0
      vertex -5.59865 7.70589 0
      vertex -6.07146 7.33914 0
    endloop
  endfacet
  facet normal 0 0 -1
    outer loop
      vertex -30.3573 36.6957 0
      vertex -6.07146 7.33914 0
      vertex -6.52031 6.94343 0
    endloop
  endfacet
  facet normal 0 0 -1
    outer loop
      vertex -32.6016 34.7171 0
      vertex -6.52031 6.94343 0
      vertex -6.94343 6.52031 0
    endloop
  endfacet
  facet normal 0 0 -1
    outer loop
      vertex -34.7171 32.6016 0
      vertex -6.94343 6.52031 0
      vertex -7.33914 6.07146 0
    endloop
  endfacet
  facet normal 0 0 -1
    outer loop
      vertex -36.6957 30.3573 0
      vertex -7.33914 6.07146 0
      vertex -7.70589 5.59865 0
    endloop
  endfacet
  facet normal 0 0 -1
    outer loop
      vertex -38.5294 27.9933 0
      vertex -7.70589 5.59865 0
      vertex -8.04222 5.10375 0
    endloop
  endfacet
  facet normal 0 0 -1
    outer loop
      vertex -40.2111 25.5187 0
      vertex -8.04222 5.10375 0
      vertex -8.34682 4.5887 0
    endloop
  endfacet
  facet normal 0 0 -1
    outer loop
      vertex -41.7341 22.9435 0
      vertex -8.34682 4.5887 0
      vertex -8.61848 4.05555 0
    endloop
  endfacet
  facet normal 0 0 -1
    outer loop
      vertex -43.0924 20.2777 0
      vertex -8.61848 4.05555 0
      vertex -8.85612 3.50639 0
    endloop
  endfacet
  facet normal 0 0 -1
    outer loop
      vertex -1.78481 9.35629 0
      vertex -8.92404 46.7814 0
      vertex -5.969 47.2495 0
    endloop
  endfacet
  facet normal 0 0 -1
    outer loop
      vertex -44.2806 17.5319 0
      vertex -8.85612 3.50639 0
      vertex -9.05881 2.94339 0
    endloop
  endfacet
  facet normal 0 0 -1
    outer loop
      vertex -45.2941 14.7169 0
      vertex -9.05881 2.94339 0
      vertex -9.22575 2.36877 0
    endloop
  endfacet
  facet normal 0 0 -1
    outer loop
      vertex -46.1288 11.8439 0
      vertex -9.22575 2.36877 0
      vertex -9.35629 1.78481 0
    endloop
  endfacet
  facet normal 0 0 -1
    outer loop
      vertex -46.7814 8.92404 0
      vertex -9.35629 1.78481 0
      vertex -9.44989 1.1938 0
    endloop
  endfacet
  facet normal 0 0 -1
    outer loop
      vertex -47.2495 5.969 0
      vertex -9.44989 1.1938 0
      vertex -9.5062 0.59808 0
    endloop
  endfacet
  facet normal 0 0 -1
    outer loop
      vertex -47.531 2.9904 0
      vertex -9.5062 0.59808 0
      vertex -9.525 0 0
    endloop
  endfacet
  facet normal 0 0 -1
    outer loop
      vertex -2.36877 9.22575 0
      vertex -11.8439 46.1288 0
      vertex -8.92404 46.7814 0
    endloop
  endfacet
  facet normal 0 0 -1
    outer loop
      vertex -2.94339 9.05881 0
      vertex -14.7169 45.2941 0
      vertex -11.8439 46.1288 0
    endloop
  endfacet
  facet normal 0 0 -1
    outer loop
      vertex -3.50639 8.85612 0
      vertex -17.5319 44.2806 0
      vertex -14.7169 45.2941 0
    endloop
  endfacet
  facet normal 0 0 -1
    outer loop
      vertex -4.05555 8.61848 0
      vertex -20.2777 43.0924 0
      vertex -17.5319 44.2806 0
    endloop
  endfacet
  facet normal 0 0 -1
    outer loop
      vertex -4.5887 8.34682 0
      vertex -22.9435 41.7341 0
      vertex -20.2777 43.0924 0
    endloop
  endfacet
  facet normal 0 0 -1
    outer loop
      vertex -5.10375 8.04222 0
      vertex -25.5187 40.2111 0
      vertex -22.9435 41.7341 0
    endloop
  endfacet
  facet normal 0 0 -1
    outer loop
      vertex -5.59865 7.70589 0
      vertex -27.9933 38.5294 0
      vertex -25.5187 40.2111 0
    endloop
  endfacet
  facet normal 0 0 -1
    outer loop
      vertex -6.07146 7.33914 0
      vertex -30.3573 36.6957 0
      vertex -27.9933 38.5294 0
    endloop
  endfacet
  facet normal 0 0 -1
    outer loop
      vertex -6.52031 6.94343 0
      vertex -32.6016 34.7171 0
      vertex -30.3573 36.6957 0
    endloop
  endfacet
  facet normal 0 0 -1
    outer loop
      vertex -6.94343 6.52031 0
      vertex -34.7171 32.6016 0
      vertex -32.6016 34.7171 0
    endloop
  endfacet
  facet normal 0 0 -1
    outer loop
      vertex -7.33914 6.07146 0
      vertex -36.6957 30.3573 0
      vertex -34.7171 32.6016 0
    endloop
  endfacet
  facet normal 0 0 -1
    outer loop
      vertex -7.70589 5.59865 0
      vertex -38.5294 27.9933 0
      vertex -36.6957 30.3573 0
    endloop
  endfacet
  facet normal 0 0 -1
    outer loop
      vertex -8.04222 5.10375 0
      vertex -40.2111 25.5187 0
      vertex -38.5294 27.9933 0
    endloop
  endfacet
  facet normal 0 0 -1
    outer loop
      vertex -8.34682 4.5887 0
      vertex -41.7341 22.9435 0
      vertex -40.2111 25.5187 0
    endloop
  endfacet
  facet normal 0 0 -1
    outer loop
      vertex -8.61848 4.05555 0
      vertex -43.0924 20.2777 0
      vertex -41.7341 22.9435 0
    endloop
  endfacet
  facet normal 0 0 -1
    outer loop
      vertex -8.85612 3.50639 0
      vertex -44.2806 17.5319 0
      vertex -43.0924 20.2777 0
    endloop
  endfacet
  facet normal 0 0 -1
    outer loop
      vertex -9.05881 2.94339 0
      vertex -45.2941 14.7169 0
      vertex -44.2806 17.5319 0
    endloop
  endfacet
  facet normal 0 0 -1
    outer loop
      vertex -9.22575 2.36877 0
      vertex -46.1288 11.8439 0
      vertex -45.2941 14.7169 0
    endloop
  endfacet
  facet normal 0 0 -1
    outer loop
      vertex -9.35629 1.78481 0
      vertex -46.7814 8.92404 0
      vertex -46.1288 11.8439 0
    endloop
  endfacet
  facet normal 0 0 -1
    outer loop
      vertex -9.44989 1.1938 0
      vertex -47.2495 5.969 0
      vertex -46.7814 8.92404 0
    endloop
  endfacet
  facet normal 0 0 -1
    outer loop
      vertex -9.5062 0.59808 0
      vertex -47.531 2.9904 0
      vertex -47.2495 5.969 0
    endloop
  endfacet
  facet normal 0 -0 -1
    outer loop
      vertex -47.531 2.9904 0
      vertex -9.525 0 0
      vertex -47.625 0 0
    endloop
  endfacet
  facet normal 0.940881 0.338738 0
    outer loop
      vertex 45.2941 14.7169 9.525
      vertex 44.2806 17.5319 0
      vertex 44.2806 17.5319 9.525
    endloop
  endfacet
  facet normal 0.940881 0.338738 0
    outer loop
      vertex 44.2806 17.5319 0
      vertex 45.2941 14.7169 9.525
      vertex 45.2941 14.7169 0
    endloop
  endfacet
  facet normal 0.860742 0.509042 0
    outer loop
      vertex 41.7341 22.9435 9.525
      vertex 40.2111 25.5187 0
      vertex 40.2111 25.5187 9.525
    endloop
  endfacet
  facet normal 0.860742 0.509042 0
    outer loop
      vertex 40.2111 25.5187 0
      vertex 41.7341 22.9435 9.525
      vertex 41.7341 22.9435 0
    endloop
  endfacet
  facet normal 0.397148 0.917755 -0
    outer loop
      vertex 20.2777 43.0924 0
      vertex 17.5319 44.2806 9.525
      vertex 20.2777 43.0924 9.525
    endloop
  endfacet
  facet normal 0.397148 0.917755 0
    outer loop
      vertex 17.5319 44.2806 9.525
      vertex 20.2777 43.0924 0
      vertex 17.5319 44.2806 0
    endloop
  endfacet
  facet normal -0.999507 -0.0314117 0
    outer loop
      vertex 9.525 0 0
      vertex 9.5062 0.59808 9.525
      vertex 9.5062 0.59808 0
    endloop
  endfacet
  facet normal -0.999507 -0.0314117 0
    outer loop
      vertex 9.5062 0.59808 9.525
      vertex 9.525 0 0
      vertex 9.525 0 9.525
    endloop
  endfacet
  facet normal 0.999507 -0.0314117 0
    outer loop
      vertex -9.525 0 9.525
      vertex -9.5062 0.59808 0
      vertex -9.5062 0.59808 9.525
    endloop
  endfacet
  facet normal 0.999507 -0.0314117 0
    outer loop
      vertex -9.5062 0.59808 0
      vertex -9.525 0 9.525
      vertex -9.525 0 0
    endloop
  endfacet
  facet normal -0.0314117 -0.999507 0
    outer loop
      vertex 0 9.525 0
      vertex 0.59808 9.5062 9.525
      vertex 0 9.525 9.525
    endloop
  endfacet
  facet normal -0.0314117 -0.999507 -0
    outer loop
      vertex 0.59808 9.5062 9.525
      vertex 0 9.525 0
      vertex 0.59808 9.5062 0
    endloop
  endfacet
  facet normal -0.707107 -0.707107 0
    outer loop
      vertex 6.94343 6.52031 0
      vertex 6.52031 6.94343 9.525
      vertex 6.52031 6.94343 0
    endloop
  endfacet
  facet normal -0.707107 -0.707107 0
    outer loop
      vertex 6.52031 6.94343 9.525
      vertex 6.94343 6.52031 0
      vertex 6.94343 6.52031 9.525
    endloop
  endfacet
  facet normal 0.661311 -0.750112 0
    outer loop
      vertex -6.52031 6.94343 0
      vertex -6.07146 7.33914 9.525
      vertex -6.52031 6.94343 9.525
    endloop
  endfacet
  facet normal 0.661311 -0.750112 0
    outer loop
      vertex -6.07146 7.33914 9.525
      vertex -6.52031 6.94343 0
      vertex -6.07146 7.33914 0
    endloop
  endfacet
  facet normal 0.338739 -0.94088 0
    outer loop
      vertex -3.50639 8.85612 0
      vertex -2.94339 9.05881 9.525
      vertex -3.50639 8.85612 9.525
    endloop
  endfacet
  facet normal 0.338739 -0.94088 0
    outer loop
      vertex -2.94339 9.05881 9.525
      vertex -3.50639 8.85612 0
      vertex -2.94339 9.05881 0
    endloop
  endfacet
  facet normal -0.917755 -0.397147 0
    outer loop
      vertex 8.85612 3.50639 0
      vertex 8.61848 4.05555 9.525
      vertex 8.61848 4.05555 0
    endloop
  endfacet
  facet normal -0.917755 -0.397147 0
    outer loop
      vertex 8.61848 4.05555 9.525
      vertex 8.85612 3.50639 0
      vertex 8.85612 3.50639 9.525
    endloop
  endfacet
  facet normal -0.45399 -0.891007 0
    outer loop
      vertex 4.05555 8.61848 0
      vertex 4.5887 8.34682 9.525
      vertex 4.05555 8.61848 9.525
    endloop
  endfacet
  facet normal -0.45399 -0.891007 -0
    outer loop
      vertex 4.5887 8.34682 9.525
      vertex 4.05555 8.61848 0
      vertex 4.5887 8.34682 0
    endloop
  endfacet
  facet normal 0.827081 -0.562083 0
    outer loop
      vertex -8.04222 5.10375 9.525
      vertex -7.70589 5.59865 0
      vertex -7.70589 5.59865 9.525
    endloop
  endfacet
  facet normal 0.827081 -0.562083 0
    outer loop
      vertex -7.70589 5.59865 0
      vertex -8.04222 5.10375 9.525
      vertex -8.04222 5.10375 0
    endloop
  endfacet
  facet normal 0.612908 -0.790154 0
    outer loop
      vertex -6.07146 7.33914 0
      vertex -5.59865 7.70589 9.525
      vertex -6.07146 7.33914 9.525
    endloop
  endfacet
  facet normal 0.612908 -0.790154 0
    outer loop
      vertex -5.59865 7.70589 9.525
      vertex -6.07146 7.33914 0
      vertex -5.59865 7.70589 0
    endloop
  endfacet
  facet normal 0.156434 -0.987688 0
    outer loop
      vertex -1.78481 9.35629 0
      vertex -1.1938 9.44989 9.525
      vertex -1.78481 9.35629 9.525
    endloop
  endfacet
  facet normal 0.156434 -0.987688 0
    outer loop
      vertex -1.1938 9.44989 9.525
      vertex -1.78481 9.35629 0
      vertex -1.1938 9.44989 0
    endloop
  endfacet
  facet normal -0.975916 -0.218144 0
    outer loop
      vertex 9.35629 1.78481 0
      vertex 9.22575 2.36877 9.525
      vertex 9.22575 2.36877 0
    endloop
  endfacet
  facet normal -0.975916 -0.218144 0
    outer loop
      vertex 9.22575 2.36877 9.525
      vertex 9.35629 1.78481 0
      vertex 9.35629 1.78481 9.525
    endloop
  endfacet
  facet normal -0.960294 -0.27899 0
    outer loop
      vertex 9.22575 2.36877 0
      vertex 9.05881 2.94339 9.525
      vertex 9.05881 2.94339 0
    endloop
  endfacet
  facet normal -0.960294 -0.27899 0
    outer loop
      vertex 9.05881 2.94339 9.525
      vertex 9.22575 2.36877 0
      vertex 9.22575 2.36877 9.525
    endloop
  endfacet
  facet normal -0.750112 -0.661311 0
    outer loop
      vertex 7.33914 6.07146 0
      vertex 6.94343 6.52031 9.525
      vertex 6.94343 6.52031 0
    endloop
  endfacet
  facet normal -0.750112 -0.661311 0
    outer loop
      vertex 6.94343 6.52031 9.525
      vertex 7.33914 6.07146 0
      vertex 7.33914 6.07146 9.525
    endloop
  endfacet
  facet normal -0.891007 -0.45399 0
    outer loop
      vertex 8.61848 4.05555 0
      vertex 8.34682 4.5887 9.525
      vertex 8.34682 4.5887 0
    endloop
  endfacet
  facet normal -0.891007 -0.45399 0
    outer loop
      vertex 8.34682 4.5887 9.525
      vertex 8.61848 4.05555 0
      vertex 8.61848 4.05555 9.525
    endloop
  endfacet
  facet normal -0.218144 -0.975916 0
    outer loop
      vertex 1.78481 9.35629 0
      vertex 2.36877 9.22575 9.525
      vertex 1.78481 9.35629 9.525
    endloop
  endfacet
  facet normal -0.218144 -0.975916 -0
    outer loop
      vertex 2.36877 9.22575 9.525
      vertex 1.78481 9.35629 0
      vertex 2.36877 9.22575 0
    endloop
  endfacet
  facet normal -0.338739 -0.94088 0
    outer loop
      vertex 2.94339 9.05881 0
      vertex 3.50639 8.85612 9.525
      vertex 2.94339 9.05881 9.525
    endloop
  endfacet
  facet normal -0.338739 -0.94088 -0
    outer loop
      vertex 3.50639 8.85612 9.525
      vertex 2.94339 9.05881 0
      vertex 3.50639 8.85612 0
    endloop
  endfacet
  facet normal -0.156434 -0.987688 0
    outer loop
      vertex 1.1938 9.44989 0
      vertex 1.78481 9.35629 9.525
      vertex 1.1938 9.44989 9.525
    endloop
  endfacet
  facet normal -0.156434 -0.987688 -0
    outer loop
      vertex 1.78481 9.35629 9.525
      vertex 1.1938 9.44989 0
      vertex 1.78481 9.35629 0
    endloop
  endfacet
  facet normal -0.562083 -0.827081 0
    outer loop
      vertex 5.10375 8.04222 0
      vertex 5.59865 7.70589 9.525
      vertex 5.10375 8.04222 9.525
    endloop
  endfacet
  facet normal -0.562083 -0.827081 -0
    outer loop
      vertex 5.59865 7.70589 9.525
      vertex 5.10375 8.04222 0
      vertex 5.59865 7.70589 0
    endloop
  endfacet
  facet normal 0.707107 -0.707107 0
    outer loop
      vertex -6.94343 6.52031 9.525
      vertex -6.52031 6.94343 0
      vertex -6.52031 6.94343 9.525
    endloop
  endfacet
  facet normal 0.707107 -0.707107 0
    outer loop
      vertex -6.52031 6.94343 0
      vertex -6.94343 6.52031 9.525
      vertex -6.94343 6.52031 0
    endloop
  endfacet
  facet normal 0.891007 -0.45399 0
    outer loop
      vertex -8.61848 4.05555 9.525
      vertex -8.34682 4.5887 0
      vertex -8.34682 4.5887 9.525
    endloop
  endfacet
  facet normal 0.891007 -0.45399 0
    outer loop
      vertex -8.34682 4.5887 0
      vertex -8.61848 4.05555 9.525
      vertex -8.61848 4.05555 0
    endloop
  endfacet
  facet normal 0.975916 -0.218144 0
    outer loop
      vertex -9.35629 1.78481 9.525
      vertex -9.22575 2.36877 0
      vertex -9.22575 2.36877 9.525
    endloop
  endfacet
  facet normal 0.975916 -0.218144 0
    outer loop
      vertex -9.22575 2.36877 0
      vertex -9.35629 1.78481 9.525
      vertex -9.35629 1.78481 0
    endloop
  endfacet
  facet normal 0.987688 -0.156434 0
    outer loop
      vertex -9.44989 1.1938 9.525
      vertex -9.35629 1.78481 0
      vertex -9.35629 1.78481 9.525
    endloop
  endfacet
  facet normal 0.987688 -0.156434 0
    outer loop
      vertex -9.35629 1.78481 0
      vertex -9.44989 1.1938 9.525
      vertex -9.44989 1.1938 0
    endloop
  endfacet
  facet normal 0.509042 -0.860742 0
    outer loop
      vertex -5.10375 8.04222 0
      vertex -4.5887 8.34682 9.525
      vertex -5.10375 8.04222 9.525
    endloop
  endfacet
  facet normal 0.509042 -0.860742 0
    outer loop
      vertex -4.5887 8.34682 9.525
      vertex -5.10375 8.04222 0
      vertex -4.5887 8.34682 0
    endloop
  endfacet
  facet normal 0.0941076 -0.995562 0
    outer loop
      vertex -1.1938 9.44989 0
      vertex -0.59808 9.5062 9.525
      vertex -1.1938 9.44989 9.525
    endloop
  endfacet
  facet normal 0.0941076 -0.995562 0
    outer loop
      vertex -0.59808 9.5062 9.525
      vertex -1.1938 9.44989 0
      vertex -0.59808 9.5062 0
    endloop
  endfacet
  facet normal -0.987688 -0.156434 0
    outer loop
      vertex 9.44989 1.1938 0
      vertex 9.35629 1.78481 9.525
      vertex 9.35629 1.78481 0
    endloop
  endfacet
  facet normal -0.987688 -0.156434 0
    outer loop
      vertex 9.35629 1.78481 9.525
      vertex 9.44989 1.1938 0
      vertex 9.44989 1.1938 9.525
    endloop
  endfacet
  facet normal -0.995562 -0.0941076 0
    outer loop
      vertex 9.5062 0.59808 0
      vertex 9.44989 1.1938 9.525
      vertex 9.44989 1.1938 0
    endloop
  endfacet
  facet normal -0.995562 -0.0941076 0
    outer loop
      vertex 9.44989 1.1938 9.525
      vertex 9.5062 0.59808 0
      vertex 9.5062 0.59808 9.525
    endloop
  endfacet
  facet normal -0.94088 -0.338739 0
    outer loop
      vertex 9.05881 2.94339 0
      vertex 8.85612 3.50639 9.525
      vertex 8.85612 3.50639 0
    endloop
  endfacet
  facet normal -0.94088 -0.338739 0
    outer loop
      vertex 8.85612 3.50639 9.525
      vertex 9.05881 2.94339 0
      vertex 9.05881 2.94339 9.525
    endloop
  endfacet
  facet normal -0.790154 -0.612908 0
    outer loop
      vertex 7.70589 5.59865 0
      vertex 7.33914 6.07146 9.525
      vertex 7.33914 6.07146 0
    endloop
  endfacet
  facet normal -0.790154 -0.612908 0
    outer loop
      vertex 7.33914 6.07146 9.525
      vertex 7.70589 5.59865 0
      vertex 7.70589 5.59865 9.525
    endloop
  endfacet
  facet normal -0.827081 -0.562083 0
    outer loop
      vertex 8.04222 5.10375 0
      vertex 7.70589 5.59865 9.525
      vertex 7.70589 5.59865 0
    endloop
  endfacet
  facet normal -0.827081 -0.562083 0
    outer loop
      vertex 7.70589 5.59865 9.525
      vertex 8.04222 5.10375 0
      vertex 8.04222 5.10375 9.525
    endloop
  endfacet
  facet normal -0.860742 -0.509042 0
    outer loop
      vertex 8.34682 4.5887 0
      vertex 8.04222 5.10375 9.525
      vertex 8.04222 5.10375 0
    endloop
  endfacet
  facet normal -0.860742 -0.509042 0
    outer loop
      vertex 8.04222 5.10375 9.525
      vertex 8.34682 4.5887 0
      vertex 8.34682 4.5887 9.525
    endloop
  endfacet
  facet normal -0.27899 -0.960294 0
    outer loop
      vertex 2.36877 9.22575 0
      vertex 2.94339 9.05881 9.525
      vertex 2.36877 9.22575 9.525
    endloop
  endfacet
  facet normal -0.27899 -0.960294 -0
    outer loop
      vertex 2.94339 9.05881 9.525
      vertex 2.36877 9.22575 0
      vertex 2.94339 9.05881 0
    endloop
  endfacet
  facet normal -0.0941076 -0.995562 0
    outer loop
      vertex 0.59808 9.5062 0
      vertex 1.1938 9.44989 9.525
      vertex 0.59808 9.5062 9.525
    endloop
  endfacet
  facet normal -0.0941076 -0.995562 -0
    outer loop
      vertex 1.1938 9.44989 9.525
      vertex 0.59808 9.5062 0
      vertex 1.1938 9.44989 0
    endloop
  endfacet
  facet normal -0.397147 -0.917755 0
    outer loop
      vertex 3.50639 8.85612 0
      vertex 4.05555 8.61848 9.525
      vertex 3.50639 8.85612 9.525
    endloop
  endfacet
  facet normal -0.397147 -0.917755 -0
    outer loop
      vertex 4.05555 8.61848 9.525
      vertex 3.50639 8.85612 0
      vertex 4.05555 8.61848 0
    endloop
  endfacet
  facet normal -0.509042 -0.860742 0
    outer loop
      vertex 4.5887 8.34682 0
      vertex 5.10375 8.04222 9.525
      vertex 4.5887 8.34682 9.525
    endloop
  endfacet
  facet normal -0.509042 -0.860742 -0
    outer loop
      vertex 5.10375 8.04222 9.525
      vertex 4.5887 8.34682 0
      vertex 5.10375 8.04222 0
    endloop
  endfacet
  facet normal -0.612908 -0.790154 0
    outer loop
      vertex 5.59865 7.70589 0
      vertex 6.07146 7.33914 9.525
      vertex 5.59865 7.70589 9.525
    endloop
  endfacet
  facet normal -0.612908 -0.790154 -0
    outer loop
      vertex 6.07146 7.33914 9.525
      vertex 5.59865 7.70589 0
      vertex 6.07146 7.33914 0
    endloop
  endfacet
  facet normal -0.661311 -0.750112 0
    outer loop
      vertex 6.07146 7.33914 0
      vertex 6.52031 6.94343 9.525
      vertex 6.07146 7.33914 9.525
    endloop
  endfacet
  facet normal -0.661311 -0.750112 -0
    outer loop
      vertex 6.52031 6.94343 9.525
      vertex 6.07146 7.33914 0
      vertex 6.52031 6.94343 0
    endloop
  endfacet
  facet normal 0.860742 -0.509042 0
    outer loop
      vertex -8.34682 4.5887 9.525
      vertex -8.04222 5.10375 0
      vertex -8.04222 5.10375 9.525
    endloop
  endfacet
  facet normal 0.860742 -0.509042 0
    outer loop
      vertex -8.04222 5.10375 0
      vertex -8.34682 4.5887 9.525
      vertex -8.34682 4.5887 0
    endloop
  endfacet
  facet normal 0.917755 -0.397147 0
    outer loop
      vertex -8.85612 3.50639 9.525
      vertex -8.61848 4.05555 0
      vertex -8.61848 4.05555 9.525
    endloop
  endfacet
  facet normal 0.917755 -0.397147 0
    outer loop
      vertex -8.61848 4.05555 0
      vertex -8.85612 3.50639 9.525
      vertex -8.85612 3.50639 0
    endloop
  endfacet
  facet normal 0.94088 -0.338739 0
    outer loop
      vertex -9.05881 2.94339 9.525
      vertex -8.85612 3.50639 0
      vertex -8.85612 3.50639 9.525
    endloop
  endfacet
  facet normal 0.94088 -0.338739 0
    outer loop
      vertex -8.85612 3.50639 0
      vertex -9.05881 2.94339 9.525
      vertex -9.05881 2.94339 0
    endloop
  endfacet
  facet normal 0.960294 -0.27899 0
    outer loop
      vertex -9.22575 2.36877 9.525
      vertex -9.05881 2.94339 0
      vertex -9.05881 2.94339 9.525
    endloop
  endfacet
  facet normal 0.960294 -0.27899 0
    outer loop
      vertex -9.05881 2.94339 0
      vertex -9.22575 2.36877 9.525
      vertex -9.22575 2.36877 0
    endloop
  endfacet
  facet normal 0.995562 -0.0941076 0
    outer loop
      vertex -9.5062 0.59808 9.525
      vertex -9.44989 1.1938 0
      vertex -9.44989 1.1938 9.525
    endloop
  endfacet
  facet normal 0.995562 -0.0941076 0
    outer loop
      vertex -9.44989 1.1938 0
      vertex -9.5062 0.59808 9.525
      vertex -9.5062 0.59808 0
    endloop
  endfacet
  facet normal 0.397147 -0.917755 0
    outer loop
      vertex -4.05555 8.61848 0
      vertex -3.50639 8.85612 9.525
      vertex -4.05555 8.61848 9.525
    endloop
  endfacet
  facet normal 0.397147 -0.917755 0
    outer loop
      vertex -3.50639 8.85612 9.525
      vertex -4.05555 8.61848 0
      vertex -3.50639 8.85612 0
    endloop
  endfacet
  facet normal 0.562083 -0.827081 0
    outer loop
      vertex -5.59865 7.70589 0
      vertex -5.10375 8.04222 9.525
      vertex -5.59865 7.70589 9.525
    endloop
  endfacet
  facet normal 0.562083 -0.827081 0
    outer loop
      vertex -5.10375 8.04222 9.525
      vertex -5.59865 7.70589 0
      vertex -5.10375 8.04222 0
    endloop
  endfacet
  facet normal 0.45399 -0.891007 0
    outer loop
      vertex -4.5887 8.34682 0
      vertex -4.05555 8.61848 9.525
      vertex -4.5887 8.34682 9.525
    endloop
  endfacet
  facet normal 0.45399 -0.891007 0
    outer loop
      vertex -4.05555 8.61848 9.525
      vertex -4.5887 8.34682 0
      vertex -4.05555 8.61848 0
    endloop
  endfacet
  facet normal 0.218144 -0.975916 0
    outer loop
      vertex -2.36877 9.22575 0
      vertex -1.78481 9.35629 9.525
      vertex -2.36877 9.22575 9.525
    endloop
  endfacet
  facet normal 0.218144 -0.975916 0
    outer loop
      vertex -1.78481 9.35629 9.525
      vertex -2.36877 9.22575 0
      vertex -1.78481 9.35629 0
    endloop
  endfacet
  facet normal 0.27899 -0.960294 0
    outer loop
      vertex -2.94339 9.05881 0
      vertex -2.36877 9.22575 9.525
      vertex -2.94339 9.05881 9.525
    endloop
  endfacet
  facet normal 0.27899 -0.960294 0
    outer loop
      vertex -2.36877 9.22575 9.525
      vertex -2.94339 9.05881 0
      vertex -2.36877 9.22575 0
    endloop
  endfacet
  facet normal 0.0314117 -0.999507 0
    outer loop
      vertex -0.59808 9.5062 0
      vertex 0 9.525 9.525
      vertex -0.59808 9.5062 9.525
    endloop
  endfacet
  facet normal 0.0314117 -0.999507 0
    outer loop
      vertex 0 9.525 9.525
      vertex -0.59808 9.5062 0
      vertex 0 9.525 0
    endloop
  endfacet
  facet normal 0.790154 -0.612908 0
    outer loop
      vertex -7.70589 5.59865 9.525
      vertex -7.33914 6.07146 0
      vertex -7.33914 6.07146 9.525
    endloop
  endfacet
  facet normal 0.790154 -0.612908 0
    outer loop
      vertex -7.33914 6.07146 0
      vertex -7.70589 5.59865 9.525
      vertex -7.70589 5.59865 0
    endloop
  endfacet
  facet normal 0.750112 -0.661311 0
    outer loop
      vertex -7.33914 6.07146 9.525
      vertex -6.94343 6.52031 0
      vertex -6.94343 6.52031 9.525
    endloop
  endfacet
  facet normal 0.750112 -0.661311 0
    outer loop
      vertex -6.94343 6.52031 0
      vertex -7.33914 6.07146 9.525
      vertex -7.33914 6.07146 0
    endloop
  endfacet
  facet normal 0 -1 0
    outer loop
      vertex 9.525 0 0
      vertex 47.625 0 9.525
      vertex 9.525 0 9.525
    endloop
  endfacet
  facet normal 0 -1 -0
    outer loop
      vertex 47.625 0 9.525
      vertex 9.525 0 0
      vertex 47.625 0 0
    endloop
  endfacet
  facet normal 0 -1 0
    outer loop
      vertex -47.625 0 0
      vertex -9.525 0 9.525
      vertex -47.625 0 9.525
    endloop
  endfacet
  facet normal 0 -1 -0
    outer loop
      vertex -9.525 0 9.525
      vertex -47.625 0 0
      vertex -9.525 0 0
    endloop
  endfacet
endsolid OpenSCAD_Model
