solid OpenSCAD_Model
  facet normal -0 0 1
    outer loop
      vertex 0 38.1 9.525
      vertex 38.1 0 9.525
      vertex 38.1 38.1 9.525
    endloop
  endfacet
  facet normal 0 0 1
    outer loop
      vertex 38.1 0 9.525
      vertex 0 38.1 9.525
      vertex 0 0 9.525
    endloop
  endfacet
  facet normal 0 0 -1
    outer loop
      vertex 0 0 0
      vertex 38.1 38.1 0
      vertex 38.1 0 0
    endloop
  endfacet
  facet normal -0 0 -1
    outer loop
      vertex 38.1 38.1 0
      vertex 0 0 0
      vertex 0 38.1 0
    endloop
  endfacet
  facet normal 0 -1 0
    outer loop
      vertex 0 0 0
      vertex 38.1 0 9.525
      vertex 0 0 9.525
    endloop
  endfacet
  facet normal 0 -1 -0
    outer loop
      vertex 38.1 0 9.525
      vertex 0 0 0
      vertex 38.1 0 0
    endloop
  endfacet
  facet normal 1 -0 0
    outer loop
      vertex 38.1 0 9.525
      vertex 38.1 38.1 0
      vertex 38.1 38.1 9.525
    endloop
  endfacet
  facet normal 1 0 0
    outer loop
      vertex 38.1 38.1 0
      vertex 38.1 0 9.525
      vertex 38.1 0 0
    endloop
  endfacet
  facet normal 0 1 -0
    outer loop
      vertex 38.1 38.1 0
      vertex 0 38.1 9.525
      vertex 38.1 38.1 9.525
    endloop
  endfacet
  facet normal 0 1 0
    outer loop
      vertex 0 38.1 9.525
      vertex 38.1 38.1 0
      vertex 0 38.1 0
    endloop
  endfacet
  facet normal -1 0 0
    outer loop
      vertex 0 0 0
      vertex 0 38.1 9.525
      vertex 0 38.1 0
    endloop
  endfacet
  facet normal -1 -0 0
    outer loop
      vertex 0 38.1 9.525
      vertex 0 0 0
      vertex 0 0 9.525
    endloop
  endfacet
endsolid OpenSCAD_Model
